<?xml version="1.0" encoding="UTF-8"?><svg id="Layer_1" xmlns="http://www.w3.org/2000/svg" viewBox="0 0 438.84 508"><defs><style>.cls-1{fill:#f3f5e9;}.cls-2{fill:#f3f4ea;}.cls-3{fill:#f6f7ee;}.cls-4{fill:#f6f8ed;}.cls-5{fill:#f6f8ec;}.cls-6{fill:#f6f8eb;}.cls-7{fill:#f6f9ec;}.cls-8{fill:#f6f9ee;}.cls-9{fill:#f7faed;}.cls-10{fill:#f7f9ec;}.cls-11{fill:#f7f9ed;}.cls-12{fill:#f7f9ee;}.cls-13{fill:#f7f8ed;}.cls-14{fill:#f2f4ea;}.cls-15{fill:#f9fbef;}.cls-16{fill:#f9fbee;}.cls-17{fill:#f8fbee;}.cls-18{fill:#f8faee;}.cls-19{fill:#f8faed;}.cls-20{fill:#f4f7eb;}.cls-21{fill:#f5f6ea;}.cls-22{fill:#f5f7ec;}.cls-23{fill:#f5f7eb;}.cls-24{fill:#f1f3e9;}.cls-25{fill:#cecec6;}.cls-26{fill:#cecdc2;}.cls-27{fill:#cecbbf;}.cls-28{fill:#ccc8bb;}.cls-29{fill:#cccbc2;}.cls-30{fill:#cac2b3;}.cls-31{fill:#c9c0ae;}.cls-32{fill:#c9c4b5;}.cls-33{fill:#c9c2b2;}.cls-34{fill:#d0cfc5;}.cls-35{fill:#cfcec4;}.cls-36{fill:#d2ccbd;}.cls-37{fill:#d2cdbf;}.cls-38{fill:#d1ccbd;}.cls-39{fill:#cfcabc;}.cls-40{fill:#dadad0;}.cls-41{fill:#d7d4c8;}.cls-42{fill:#c5bdad;}.cls-43{fill:#3e3c3f;}.cls-44{fill:#9b958a;}.cls-45{fill:#353336;}</style></defs><path class="cls-45" d="M368.23,488.28c-2.43,3.86-5.48,7.26-8.15,10.95-1.4,1.94-3.21,3.56-4.26,5.76-.42,.88-1.23,.57-1.9,.56-4.72-.13-9.43-.3-14.15-.42-15.27-.36-30.55-.54-45.82,.15-13.58,.62-27.18,.81-40.76,1.18-6.39,.18-12.8-.07-19.19,.12-11.67,.34-23.33,1-35,1.09-7.6,.06-15.2,.16-22.79,.2-10.64,.06-21.28,.17-31.91,.1-12.48-.09-24.93-.86-37.4-1.3-8.79-.31-17.59-.38-26.39-.59-2.8-.07-5.59-.23-8.39-.34-.64-.03-1.29,.02-1.92-.07-1.09-.16-2.36,.87-3.2-.03-.75-.79-.38-2.14-.53-3.23-1.54-11.32-3.05-22.65-4.5-33.99-1.96-15.3-4.05-30.58-6.89-45.75-2.54-13.59-4.69-27.25-6.55-40.95-1.32-9.74-3.15-19.41-4.78-29.11-1.78-10.64-3.33-21.32-4.62-32.04-1.63-13.42-4.33-26.66-7.05-39.9-2.69-13.08-5.09-26.21-7.03-39.42-2.34-15.97-4.54-31.96-6.41-48-.96-8.26-2.1-16.49-3.18-24.73-1.71-13.16-3.49-26.3-5.14-39.47-1.86-14.91-3.68-29.83-5.14-44.79-1.05-10.66-2.21-21.31-3.34-31.96-.05-.47-.21-.93-.32-1.39-.51-3.11-.69-6.25-1.21-9.36-.16-.96,.03-1.87,.74-2.67,4.02-4.52,7.89-9.17,11.98-13.63,1.62-1.77,3.88-1.47,5.83-1.61,8.26-.59,16.43-1.87,24.65-2.85,5.36-.64,10.77-1.02,16.18-1.32,9.31-.51,18.62-1.06,27.93-1.73,8.9-.64,17.82-1.06,26.72-1.73,5.72-.43,11.46-.74,17.18-1.15,5.31-.39,10.63-.73,15.94-1.27,3-.31,6.05-.42,9.07-.55,7.65-.32,15.26-1.17,22.88-1.77,6.35-.5,12.69-1.14,19.03-1.68,7.06-.6,14.11-1.2,21.17-1.76,8.02-.64,16.06-1.1,24.09-1.59,5.41-.33,10.82-.7,16.22-1.13,5.64-.45,11.27-.93,16.92-1.29,6.19-.4,12.39-.78,18.56-1.55,4.82-.6,9.7-.71,14.44-1.9,1.23-.31,1.98,.24,2.22,1.52,2.12,11.03,4.44,22.03,5.9,33.19,.88,6.72,1.06,13.48,1.9,20.18,.85,6.78,1.69,13.56,2.61,20.33,.52,3.86,1.13,7.71,1.19,11.63,.03,2.02,1.21,3.64,2.49,5.06,5.76,6.41,11.07,13.21,16.81,19.62,6.18,6.9,12.02,14.09,18.16,21.02,3.96,4.47,7.77,9.1,11.59,13.7,5.16,6.2,10.64,12.12,15.88,18.24,7.57,8.83,15.05,17.75,22.49,26.69,7.19,8.64,13.87,17.69,21.5,25.96,2.3,2.49,2.94,5.61,3.32,8.78,.14,1.16,.47,2.13,1.08,3.1,1.03,1.65,1.75,3.4,.92,5.39-2.69,5.52-5.59,10.96-8.04,16.59-9.71,22.35-20.21,44.33-30.55,66.39-4.17,8.89-8.08,17.91-12.1,26.87-4.16,9.27-8.91,18.22-13.6,27.22-3.66,7.01-7.47,13.94-11.42,20.79-.63,1.1-1.36,2.18-1.61,3.46-2.09,4.04-2.12,8.3-1.53,12.7,.78,5.83,1.41,11.68,2.07,17.53,.5,4.42,1.13,8.83,1.73,13.24,.97,7.17,1.77,14.37,2.72,21.54,1.12,8.42,2.19,16.86,3.04,25.31,.06,.64-.03,1.27-.38,1.83Z"/><path class="cls-41" d="M437.88,234.8c.05-1.78-.39-3.44-1.41-4.88-.64-.9-.85-1.92-.92-2.93-.33-4.31-2.18-7.72-5.01-11.05-9.42-11.08-18.43-22.52-27.78-33.67-7.97-9.49-16.21-18.75-24.31-28.14-5.9-6.84-11.74-13.74-17.62-20.59-11.82-13.77-23.63-27.55-35.5-41.27-1.44-1.66-2.11-3.39-2.24-5.59-.43-7.11-1.59-14.13-2.49-21.19-.91-7.22-1.63-14.46-2.17-21.72-.42-5.59-1.47-11.09-2.22-16.63-1.04-7.69-2.84-15.24-4.34-22.84-.15-.78-.22-1.58-.31-2.37-.11-.99-.56-1.42-1.61-1.18-6.97,1.56-14.08,1.95-21.16,2.56-14.74,1.26-29.49,2.36-44.26,3.32-10.06,.65-20.11,1.25-30.16,2.03-8.37,.65-16.73,1.48-25.09,2.21-8.45,.73-16.89,1.51-25.34,2.15-12.76,.96-25.52,1.85-38.29,2.72-8.62,.59-17.24,1.07-25.86,1.63-11.49,.75-22.98,1.57-34.47,2.26-6.55,.39-13.09,.83-19.61,1.49-8.03,.81-16,2.18-24.07,2.74-1.91,.13-3.82,.38-5.73,.53-1.18,.09-2.09,.56-2.88,1.48-3.85,4.49-7.73,8.96-11.64,13.39-.85,.96-.87,1.98-.73,3.12,.35,2.85,.93,5.68,.86,8.57-1.12-1.19-.47-2.75-.79-4.12-.47-2-.52-4.1-.71-6.16-.08-.82,.1-1.58,.74-2.19,.87-.82,1.78-1.63,1.81-2.98,0-.19,.22-.48,.41-.56,2.54-1.02,3.48-3.6,5.28-5.32,1.67-1.6,3.19-3.32,4.83-4.93,.53-.52,1.16-.9,1.87-1.02,1.49-.25,2.99-.48,4.5-.55,5.41-.25,10.75-1.02,16.11-1.75,3.53-.49,7.06-1.14,10.67-1.2,2.29-.04,4.58-.48,6.87-.75,.32-.04,.63-.15,.94-.13,3.6,.24,7.16-.38,10.75-.55,3.97-.18,7.96-.28,11.9-.87,.31-.05,.64-.06,.96-.04,4.32,.26,8.61-.37,12.9-.61,5.4-.29,10.8-.72,16.21-.97,4.68-.21,9.37-.59,14.05-.97,4.91-.4,9.83-.7,14.74-1.19,2.99-.3,6.04-.45,9.05-.7,3.57-.29,7.17-.05,10.71-.78,.46-.1,.96-.07,1.43-.06,4.07,.03,8.1-.44,12.14-.89,2.52-.28,5.08-.23,7.63-.53,2.84-.34,5.7-.53,8.53-.91,2.05-.28,4.13-.33,6.19-.45,4.69-.28,9.36-.83,14.04-1.21,4.99-.4,9.99-.72,14.98-1.19,2.6-.25,5.27-.27,7.85-.67,4.44-.69,8.91-.21,13.36-.75,2.9-.35,5.87-.56,8.82-.62,3.75-.07,7.46-.53,11.18-.85,2.53-.22,5.08-.31,7.62-.58,5.62-.59,11.29-.47,16.88-1.38,.47-.08,.96-.06,1.44-.06,3.36,.05,6.66-.53,9.98-.84,3.25-.3,6.48-.69,9.72-1.09,1.02-.13,2.03-.39,3.06-.48,1.6-.13,2.03,.21,2.38,1.68,1.01,4.25,1.91,8.53,2.76,12.81,1.06,5.36,1.82,10.79,2.63,16.21,.74,4.95,1.14,9.94,1.8,14.9,.1,.79,.05,1.6,.05,2.4,0,4.14,.96,8.19,1.24,12.29,.23,3.34,1.31,6.57,1.17,9.94-.02,.4-.03,.82,.07,1.19,1.31,4.95,1.43,10.05,1.86,15.11,.17,2.06,1.15,3.91,2.49,5.33,2.2,2.31,4.25,4.76,6.31,7.17,1.54,1.8,3.01,3.69,4.55,5.51,2.14,2.55,4.2,5.17,6.42,7.64,4.04,4.51,7.97,9.11,11.84,13.76,1.12,1.35,2.28,2.71,3.51,3.91,3.51,3.42,6.09,7.57,9.44,11.11,4.48,4.74,8.33,10.03,12.83,14.78,4.48,4.73,8.34,10.04,12.71,14.88,4.07,4.49,7.87,9.21,11.73,13.86,5.18,6.25,10.51,12.38,15.35,18.9,1.94,2.61,4.1,5.08,6.3,7.5,2.24,2.47,4.25,5.16,6.38,7.73,1.71,2.06,1.86,4.67,2.38,7.1,.25,1.17,.21,2.29,1.14,3.26,1.03,1.08,1.04,2.64,1.31,4.03,.15,.74-.1,1.44-.92,1.75Z"/><path class="cls-40" d="M368.23,488.28c-1.16-9.44-2.31-18.88-3.48-28.32-1.21-9.76-2.43-19.51-3.64-29.27-.91-7.3-1.82-14.59-2.71-21.89-.24-1.98-.41-3.98-.61-5.96-.06-.56,.04-1.08,.2-1.64,.55-1.85,1.34-3.57,2.56-5.08-.61,1.86-.37,3.85-1.22,5.75-.53,1.19,0,2.92,.24,4.38,.48,2.97,.71,5.96,.97,8.96,.19,2.12,.61,4.21,.77,6.34,.09,1.17,.41,2.31,.23,3.52-.11,.78-.08,1.58,.26,2.35,.83,1.84,.92,3.83,1.14,5.8,.27,2.36,.8,4.69,.52,7.09-.04,.35,.2,.76,.4,1.09,.25,.42,.51,.82,.49,1.32-.21,5.64,1.47,11.12,1.48,16.74,1.43,3.38,.76,7.07,1.57,10.57,.4,1.72,.22,3.59,1.18,5.21,.11,.19,.15,.5,.07,.7-.83,2.01,0,3.88,.31,5.83,.27,1.67-.04,3.43,.11,5.15,.04,.48-.3,1.07-.86,1.36Z"/><path class="cls-24" d="M347.66,302.92c-.94-8.26-2.04-16.5-3.16-24.74-1.04-7.69-1.99-15.38-2.65-23.11-.62-7.25-1.37-14.49-2.1-21.72-.87-8.59-1.76-17.18-2.69-25.76-.78-7.23-1.63-14.46-2.47-21.69-.92-7.86-1.83-15.72-2.8-23.58-.85-6.9-1.78-13.79-2.67-20.69-.07-.55-.15-1.11-.18-1.67-.1-1.79,.46-2.14,2.06-1.39,.69,.33,1.14,.86,1.59,1.42,10.4,12.77,21.05,25.34,31.76,37.85,6.65,7.78,13.11,15.72,19.37,23.82,4.11,5.31,8.58,10.33,12.63,15.7,5.06,6.71,9.65,13.74,14.18,20.81,.91,1.41,.88,2.55,.2,3.95-6.58,13.43-13.13,26.87-19.69,40.3-5.37,10.99-10.66,22.03-16.16,32.96-4.75,9.43-9.76,18.72-14.62,28.09-1.62,3.12-3.12,6.31-4.71,9.44-.46,.9-.8,1.92-2.01,2.64-.76-2.55-.66-4.98-.95-7.34"/><path class="cls-18" d="M237.91,64.07c-2.26,.2-4.1,.27-5.91,.56-1.57,.25-2.75-.69-4.1-1.08-.6-.17-.63-.86-.77-1.4-1.26-4.71-2.28-9.49-2.82-14.33-.49-4.46-1.17-8.86-2.26-13.21-.47-1.89-.25-2.25,1.74-2.43,7.16-.65,14.32-1.25,21.48-1.86,6.76-.58,13.52-1.14,20.29-1.72,6.36-.54,12.72-1.06,19.08-1.68,1.23-.12,1.99,.43,2.7,1.19,1.74,1.87,3.31,3.92,5.19,5.64,1.58,1.44,2.39,3.05,2.61,5.13,.67,6.27,1.44,12.54,2.13,18.81,.2,1.79,.09,1.85-1.69,2.13-.39,.06-.79,.11-1.19,.12-9.11,.37-18.16,1.48-27.24,2.12-9.88,.7-19.77,1.35-29.23,1.99Z"/><path class="cls-11" d="M166.72,35.42c10.54-.56,21.05-1.39,31.57-2.07,5.18-.33,10.38-.5,15.57-.7,1.87-.07,1.89-.02,2.14,1.72,1.37,9.49,3.25,18.89,5.02,28.31,.07,.39,.19,.78,.24,1.17,.15,1.41-.05,1.71-1.48,1.82-2.31,.18-4.63,.25-6.94,.42-13.71,1.02-27.42,2.04-41.12,3.1-3.58,.28-7.16,.7-10.74,1-3.21,.27-5.01-1.05-5.99-4.11-2.03-6.36-2.51-13.01-3.75-19.51-.48-2.51,.23-4.36,1.48-6.3q3.15-4.83,8.97-4.86c1.68,0,3.36,0,5.03,0Z"/><path class="cls-18" d="M288.84,276.03c-9.83,.4-19.63,1.29-29.47,1.37-4.04,.03-3.65,.31-4.41-3.57-1.33-6.83-2.44-13.69-3.21-20.61-.08-.7-.3-1.4,.5-1.92,.28-.18,.29-.72,.51-1.05,2.27-3.43,4.77-6.47,9.57-5.48,12.87-.18,25.73-.62,38.58-1.3,5.58-.29,11.16-.77,16.74-1.17,2.54-.18,2.79,.02,2.98,2.46,.61,7.97,1.56,15.91,2.66,23.82,.2,1.42,.25,2.87,.43,4.29,.14,1.09-.36,1.57-1.34,1.9-.79,.27-1.56,.28-2.36,.3-10.39,.31-20.78,.63-31.17,.94Z"/><path class="cls-13" d="M248.38,133.09c-2.64,0-5.27,.01-7.91,0-2.96-.02-4.16-1.07-4.74-3.96-1.37-6.81-2.36-13.69-3.35-20.56-.38-2.6,1.38-4.11,2.43-6.01,.31-.56,1.03-.29,1.57-.31,5.98-.29,11.96-.56,17.95-.85,7.26-.35,14.49-1.1,21.72-1.72,7.96-.69,15.93-1.13,23.91-1.32,1.3-.03,1.76,.38,1.97,1.69,1.36,8.44,2.61,16.89,3.6,25.38,.35,3.05,.26,3.2-2.91,3.46-4.14,.34-8.31,.14-12.44,.62-8.01,.94-16.04,1.71-24.09,2.27-5.9,.41-11.8,.78-17.7,1.17v.13Z"/><path class="cls-9" d="M127.67,36.14c1.28,0,2.57,.12,3.83-.03,1.79-.22,3.07,.5,4.19,1.76,1.27,1.43,2.51,2.91,3.88,4.24,1.48,1.43,2.1,3.19,2.22,5.14,.48,7.49,.92,14.99,1.34,22.48,.14,2.45,.08,2.28-2.35,2.37-2.32,.09-4.63,.16-6.95,.23-13.42,.43-26.8,1.47-40.2,2.23-1.99,.11-3.99,.18-5.98,.34-1.39,.11-1.98-.51-2.29-1.83-1.05-4.35-1.85-8.75-2.55-13.16-.96-5.99-1.74-12-2.53-18.02-.26-1.95-.16-1.99,1.79-2.07,13.33-.55,26.6-1.79,39.86-3.18,1.9-.2,3.83-.25,5.74-.37v-.15Z"/><path class="cls-11" d="M256.96,168.07c-3.89,0-8.04,0-12.2,0-.56,0-1.12,.02-1.67-.06-1.12-.16-1.85-.65-2.02-1.95-.54-4.28-1.18-8.54-1.8-12.81-.57-3.95-1.16-7.9-1.77-11.84-.29-1.86-.22-2.07,1.67-2.3,1.82-.22,3.66-.3,5.49-.4,5.5-.3,11.01-.47,16.5-.89,5.97-.45,11.91-1.18,17.87-1.7,7.32-.64,14.64-1.18,21.97-1.77,1.11-.09,2.22-.23,3.34-.3,2.18-.15,2.25-.1,2.41,2.15,.13,1.83,.22,3.67,.26,5.51,.09,4.24,.44,8.46,1.1,12.64,.26,1.68-.03,3.11-1.09,4.47-1.28,1.63-2.27,3.48-3.63,5.06-.77,.9-1.63,1.34-2.88,1.37-7.19,.21-14.33,1.17-21.5,1.64-7.25,.47-14.52,.78-22.05,1.18Z"/><path class="cls-16" d="M56.02,40.7c4.55,0,9.11,.03,13.66-.02,1.24-.01,1.88,.34,2.09,1.67,1.59,10.18,3.69,20.28,4.62,30.56,.29,3.25,.42,3.12-2.73,2.93-3.75-.23-7.49-.58-11.24-.84-10.38-.72-20.78-.64-31.17-.5-4.47,.06-8.94,.52-13.4,.78-.72,.04-1.44,.02-2.16,.05-1.08,.04-1.61-.49-1.75-1.53-.26-1.9-.6-3.79-.83-5.69-.35-2.86-.79-5.7-1.42-8.51-.46-2.03-.76-4.02-.54-6.15,.13-1.23,.53-2.09,1.27-2.94,1.83-2.12,3.65-4.23,5.42-6.4,.45-.55,.9-.76,1.59-.84,5.55-.7,11.14-.99,16.72-1.35,6.62-.43,13.22-1.23,19.86-1.22Z"/><path class="cls-18" d="M292.22,280.93c10.08,0,20.16,0,30.23,0,1.75,0,1.78,.03,2.09,1.88,1.18,7.1,2.27,14.2,2.89,21.38,.09,1.03,.29,2.06,.4,3.09,.19,1.88,.15,1.94-1.64,2.01-3.2,.13-6.39,.33-9.59,.32-10.25-.04-20.45,.92-30.65,1.69-4.71,.36-9.44,.16-14.14,.51-3.59,.26-5.69-1.7-7.49-4.22-.72-1.01-1.53-1.72-2.5-2.44-2.15-1.61-3.98-3.34-4.47-6.4-.78-4.84-1.27-9.66-1.32-14.55-.02-1.63,.08-1.78,1.69-1.94,1.75-.17,3.5-.27,5.26-.33,7.19-.24,14.39-.44,21.58-.68,2.56-.09,5.11-.27,7.66-.4v.08Z"/><path class="cls-15" d="M231.63,278.3c-8.96,.48-17.17,1-25.4,1.33-5.67,.22-11.35,.19-17.02,.22-1.84,0-2.49-.59-2.91-2.5-1.12-5.23-2.14-10.48-2.87-15.78-.53-3.8-.96-7.61-1.08-11.44-.06-2.04,.04-2.19,2.08-2.26,7.27-.24,14.55-.29,21.8-.74,9.41-.58,18.84-.66,28.25-1.3,1.72-.12,3.11,.26,4.42,1.35,1.47,1.23,2.94,2.49,4.57,3.48,1.21,.73,1.56,1.7,1.67,2.93,.34,3.66,.71,7.31,1.01,10.98,.3,3.75,.73,7.47,1.38,11.17,.41,2.34,.33,2.52-2.01,2.55-4.87,.06-9.75,.02-13.89,.02Z"/><path class="cls-11" d="M302.32,236.07c-8.36,.29-15,.03-21.62,.51-6.61,.48-13.27,.59-19.84,1.4-4.15,.52-6.76-1.68-9.63-3.78-.69-.51-.79-1.38-.9-2.16-.84-5.69-1.67-11.38-2.48-17.07-.16-1.11-.19-2.23-.41-3.33-.22-1.14,.27-1.68,1.31-1.79,1.59-.17,3.18-.34,4.78-.4,10.38-.4,20.77-.69,31.14-1.16,9.66-.44,19.34-.29,28.97-1.14,1.38-.12,1.87,.53,2.06,1.71,.51,3.24,1.03,6.47,1.53,9.7,.74,4.73,1.46,9.47,2.19,14.2,.07,.47,.16,.95,.2,1.42,.16,1.8,.08,1.94-1.77,1.84-5.76-.31-11.51-.2-15.53,.04Z"/><path class="cls-19" d="M288.23,202.19c-12.08,.35-24.13,1.08-36.19,1.68-.56,.03-1.12,.03-1.68,.04q-2.47,.04-2.95-2.38c-1.4-7.05-2.78-14.11-3.36-21.3-.08-.95-.29-1.9-.46-2.84-.18-1.01,.3-1.52,1.25-1.63,.79-.09,1.59-.12,2.39-.17,8.38-.48,16.77-.85,25.14-1.45,9.41-.67,18.82-1.29,28.26-1.44,1.7-.03,3.06,.32,4.36,1.46,1.8,1.58,3.61,3.16,5.69,4.38,.94,.56,1.64,1.31,1.64,2.48,.04,5.79,1.47,11.4,2.24,17.1,.05,.4,.18,.79,.18,1.18,.03,1.81-.7,2.63-2.53,2.66-5.52,.1-11.04,.16-16.55,.21-2.48,.02-4.96,0-7.44,0Z"/><path class="cls-18" d="M40.38,252.14c7.26-.38,14.53-.45,21.8-.61,10.06-.23,20.13-.45,30.19-.79,2.26-.08,4.19,.23,5.93,1.83,1.1,1.01,2.41,1.83,3.6,2.78,1,.8,1.58,1.82,1.79,3,1.19,7,2.33,14.02,3.48,21.03,.03,.15,0,.32,0,.48,.7,2.15-.91,1.8-2,1.72-6.22-.44-12.45-.29-18.67-.17-9.32,.18-18.63,.83-27.94,1.14-3.99,.13-7.98-.15-11.96-.31-3.4-.14-5.11-2.42-5.26-5.77-.27-5.96-1.38-11.83-2.13-17.74-.15-1.19-.21-2.38-.28-3.57-.07-1.34,.31-2.34,1.48-3.01Z"/><path class="cls-18" d="M204.87,176.45c8.3-.27,16.61-.53,24.91-.82,1.43-.05,2.87-.13,4.3-.3,1.18-.14,1.73,.28,1.92,1.47,.62,3.94,1.35,7.86,1.98,11.8,.68,4.26,1.3,8.53,1.93,12.79,.07,.47,.09,.95,.12,1.43,.12,2.1,.12,2.16-1.97,2.17-12.55,.04-25.06,1.11-37.6,1.61-7.1,.29-14.2,.75-21.31,.93-2.57,.06-2.59,.05-3.05-2.5-1.42-7.96-2.28-15.96-1.79-24.07,.15-2.46,1.33-3.77,3.73-3.9,7.5-.39,15.01-.38,22.52-.45,1.44-.01,2.87,0,4.31,0v-.18Z"/><path class="cls-18" d="M180.57,136.2c-2.79,.16-5.59,.34-8.38,.47-1.95,.09-2.15-.08-2.63-1.97-1.81-7.13-3.56-14.27-4.5-21.58-.22-1.74-.36-3.5-.65-5.23-.15-.93,.1-1.35,1.03-1.43,2.31-.2,4.61-.46,6.92-.63,12.44-.89,24.86-1.98,37.31-2.61,2.95-.15,5.91-.18,8.86-.35,1.05-.06,1.83,.24,2.58,.93,1.52,1.41,3.07,2.8,4.65,4.15,.46,.4,.67,.83,.76,1.42,1.12,6.94,2.29,13.87,3.38,20.82,.42,2.68,.03,3.13-2.64,3.28-5.35,.31-10.71,.44-16.05,.83-10.21,.74-20.43,1.35-30.65,1.91Z"/><path class="cls-16" d="M20.69,111.41c6.62-.31,13.25-.55,19.87-.96,10.21-.63,20.4-1.43,30.64-1.52q6.05-.05,10.47,3.77c.56,.48,.69,1.04,.8,1.66,.82,4.4,1.72,8.78,2.09,13.25,.26,3.11,1.26,6.11,1.44,9.23,.37,2.71,.26,2.89-2.36,3.12-2.07,.18-4.14,.01-6.21,0-7.75-.04-15.49,.34-23.24,.31-7.82-.04-15.64,.41-23.46,.46-1.76,.01-3.51-.12-5.26-.27-2.18-.2-3.1-1.36-3.35-3.6-.81-7.34-1.12-14.74-2.26-22.04-.19-1.25,.1-2.38,.83-3.4Z"/><path class="cls-11" d="M262.66,323.21c2.31-3.59,5.89-4.25,9.79-4.34,6.31-.14,12.62-.31,18.92-.6,6.14-.28,12.27-.79,18.41-1.1,5.9-.3,11.81-.37,17.7-.94,1.01-.1,1.25,.42,1.35,1.22,.25,1.9,.54,3.8,.74,5.7,.3,2.86,.53,5.72,.78,8.58,.2,3.65,.67,7.28,.79,10.93,.07,2.09-.85,3.02-3.05,3.03-5.91,.04-11.83,.07-17.74,0-8.22-.09-16.37,.85-24.56,1.35-5.56,.34-11.13,.8-16.73,.62-2.38-.07-3.15-1.6-3.78-3.36-.86-2.41-1.07-4.98-1.56-7.47-.69-3.51-1.1-7.07-1.54-10.62-.12-1.01-.24-2.09,.46-3Z"/><path class="cls-11" d="M53.55,215.64c9.91-.33,19.8-.97,29.71-1,4.08-.01,8.15,.04,12.23,.06,.79,0,1.27,.08,1.8,1.02,1.63,2.93,2.17,6.15,2.82,9.32,.6,2.89,.81,5.85,1.29,8.77,.17,1.02,.04,1.89-.53,2.72-1.09,1.58-2.18,3.16-3.24,4.76-.58,.88-1.31,1.25-2.39,1.26-3.2,.02-6.39,.21-9.59,.21-4.41,0-8.77,.52-13.16,.78-11.26,.66-22.53,.62-33.8,.4-1.67-.03-1.84-.24-2.1-1.97-1.14-7.82-2.25-15.65-3.37-23.47-.07-.47-.12-.95-.14-1.43-.04-.88,.38-1.34,1.28-1.35,1.12-.02,2.24-.07,3.36-.07,5.28,0,10.55,0,15.83,0Z"/><path class="cls-9" d="M118.21,139.32c-7.11,0-14.22,.02-21.33-.01-1.83,0-1.99-.1-2.35-2.01-.77-4.16-1.38-8.35-2.15-12.51-.66-3.6-1.14-7.25-2.43-10.7-.16-.42-.07-.77,.13-1.13,.04-.07,.1-.13,.13-.2q2.46-4.61,7.66-4.71c9.99-.2,19.97-.34,29.96-.62,5.67-.16,11.32-.58,16.99-.85,3.13-.15,3.43,.22,4.07,3.32,1.7,8.21,3.04,16.49,4.99,24.64,.73,3.05,.56,2.7-2.17,2.85-11.17,.64-22.33,1.48-33.52,1.94Z"/><path class="cls-12" d="M275.99,93.28c-11.82,.24-23.64,.45-35.44,1.41-.64,.05-1.3,.07-1.89,.28-1.76,.61-2.99-.09-4.25-1.28-3.41-3.21-3.47-3.17-3.87-7.74-.39-4.46-.73-8.92-1.05-13.38-.14-1.91,.36-2.52,2.33-2.8,1.66-.24,3.33-.35,5-.49,14-1.14,28-2.31,42.01-3.4,5.49-.43,11-.7,16.5-1.02,2.25-.13,2.3-.12,2.65,2.01,1.2,7.41,2.1,14.86,2.86,22.33,.21,2.05-.73,3.08-2.82,3.18-7.34,.32-14.69,.61-22.03,.91Z"/><path class="cls-18" d="M49.18,210.41c-4.23,.26-8.47,.34-12.7,.25-4.5-.09-4.31-.31-4.79-4.14-.79-6.26-1.5-12.52-2.61-18.74-.23-1.3,.14-2.61,1.08-3.71,1.58-1.84,3.3-2.73,5.93-2.74,13.82-.06,27.63-.59,41.44-1.23,3.83-.18,7.67-.06,11.5-.17,1.25-.03,1.91,.35,2.08,1.64,1.09,8.01,3.41,15.76,5.06,23.65,.65,3.14,.61,3.2-2.45,3.34-3.35,.15-6.71,.25-10.06,.25-9.04,0-18.04,.66-27.06,1.2-2.47,.15-4.95,.26-7.42,.39Z"/><path class="cls-11" d="M144.59,280.09c-7.68,.15-15.33,.95-23,1.21-1.2,.04-2.4,.07-3.6,.04-1.71-.04-1.81-.15-2.14-1.9-.74-3.93-1.04-7.93-1.95-11.82-.64-2.72-1.23-5.46-2.02-8.14-.34-1.16-.15-2.4-.74-3.49-.32-.6,0-1.08,.32-1.54,.42-.58,.87-1.14,1.3-1.72q2.45-3.27,6.44-3.42c12.63-.46,25.25-.94,37.88-1.38,3.04-.1,6.08,0,9.12-.06,.94-.02,1.5,.26,1.72,1.21,.1,.46,.39,.88,.48,1.33,1.1,5.73,2.13,11.47,2.92,17.25,.44,3.25,.94,6.49,1.39,9.73,.32,2.26,.26,2.31-1.96,2.34-8.72,.11-17.44,.23-26.15,.34Z"/><path class="cls-18" d="M199.49,169.85c-6.63,0-13.27-.17-19.9,.07-3.34,.12-5.35-1.62-7.35-3.75-.49-.52-.5-1.15-.56-1.78-.54-6.61-1.09-13.22-1.61-19.83-.14-1.83-.12-1.91,1.84-2.1,4.37-.43,8.74-.83,13.12-1.14,12.43-.86,24.87-1.68,37.3-2.51,2.07-.14,4.14-.29,6.22-.41,1.8-.11,1.88-.11,2.25,1.65,1.02,4.85,2.05,9.69,2.93,14.56,.66,3.61,1.11,7.26,1.63,10.9,.33,2.33,.29,2.42-2.11,2.55-11.25,.64-22.48,1.79-33.77,1.79Z"/><path class="cls-19" d="M74.27,288.07c12.55-.14,22.46-.32,32.36,.12,2.56,.12,2.78,.27,3.3,2.8,1.1,5.33,1.51,10.75,1.84,16.17,.03,.48,.03,.95-.24,1.39-1.12,1.83-2.01,3.79-3.72,5.24-.93,.79-1.83,1.1-3.01,1.09-11.03-.17-22.05,.35-33.07,.49-6.47,.08-12.92,.77-19.4,.7-.56,0-1.12,.02-1.68,.01-3.25-.02-3.65-.36-4.45-3.44-1.73-6.65-3.14-13.37-4.18-20.16-.3-1.95-.27-1.86,1.49-2.76,1.13-.58,2.29-.64,3.47-.7,9.97-.52,19.95-.8,27.3-.94Z"/><path class="cls-5" d="M54.85,145.59c9.83-.08,19.66-.3,29.47,.45,1.99,.15,1.99-.33,2.39,2.05,1.21,7.17,2.51,14.32,3.33,21.54,.23,1.98,.18,2.08-1.73,2.14-.8,.03-1.6,.03-2.4,.02-11.04-.22-22.02,1.2-33.05,1.32-6.31,.07-12.62,.24-18.94,.4-2.29,.06-4.25-.46-5.6-2.49-.35-.52-.81-1.03-1.33-1.37-2.18-1.41-2.68-3.52-2.81-5.92-.29-5.18-.74-10.36-1.08-15.54-.16-2.42,.03-2.6,2.48-2.6,9.75-.01,19.5,0,29.25,0Z"/><path class="cls-18" d="M193.63,321.43c1.5-.57,2.96-.45,4.37-.52,11.66-.52,23.32-1.07,34.98-1.45,4.47-.15,8.95,.13,13.43,.17,.94,0,1.69,.39,2.45,.84,1.99,1.19,3.85,2.6,5.98,3.53,.94,.41,.97,1.16,1.06,1.95,.28,2.62,.54,5.25,.85,7.86,.45,3.81,.93,7.62,1.41,11.42,.31,2.5,.29,2.6-2.21,2.64-9.04,.14-18.07,.24-27.11,.33-9.52,.09-19.03,.15-28.55,.22-.56,0-1.12,0-1.68,0-1.91-.06-1.95-.06-2.29-1.97-1.19-6.78-1.85-13.62-2.26-20.48-.09-1.5-.09-3.01-.42-4.55Z"/><path class="cls-18" d="M198.77,284.28c8.07,.06,16.12-.53,24.16-1.11,7.01-.51,14.03-.74,21.06-.9,1.59-.04,3.19,.11,4.79,.05,1.02-.04,1.39,.45,1.61,1.34,.6,2.41,.74,4.89,1.03,7.35,.55,4.67,.86,9.38,1.9,13.99,.08,.34-.02,.62-.26,.87-.66,.7-1.01,1.58-1.44,2.42h0c-1.67,3.26-4.92,2.5-7.62,2.8-6.9,.77-13.86,.42-20.78,.78-8.84,.45-17.69,.78-26.55,.72-3.47-.02-3.56,0-4.26-3.39-1.53-7.39-3.59-14.67-4.27-22.23-.22-2.46-.27-2.41,2.28-2.48,2.78-.07,5.58,.27,8.35-.2Z"/><path class="cls-11" d="M133.25,207.47c-8.55,0-17.1,0-25.66,0-3.22,0-3.31,.02-3.95-3.12-1.29-6.26-2.33-12.56-3.17-18.89-.15-1.11-.37-2.21-.48-3.32-.16-1.59,.24-2.17,1.73-2.68,.85-.3,1.74-.24,2.61-.26,8.31-.23,16.62-.42,24.92-.7,4.39-.15,8.77-.55,13.13-1.09,3.42-.42,6.85-.46,10.29-.36,1.09,.03,1.71,.46,2.36,1.29,1.69,2.15,2.98,4.54,4.51,6.78,.34,.51,.36,1.04,.4,1.59,.35,5.83,1.73,11.53,2.12,17.36,.02,.24,.05,.48,.08,.71,.28,2.5,.19,2.6-2.27,2.66-8.23,.18-16.46,.05-24.69-.23-.64-.02-1.28,0-1.92,0v.26Z"/><path class="cls-17" d="M208.7,239.21c-7.99,.24-15.98,.5-23.98,.72-2.79,.08-2.77,.03-3.36-2.64-1.61-7.34-2.49-14.8-3.53-22.24-.14-.99,.26-1.26,1.16-1.3,3.27-.14,6.54-.4,9.82-.49,9.51-.25,18.98-1.2,28.48-1.76,6.86-.41,13.73-.74,20.6-.77,2.37-.01,2.67,.23,3.07,2.41,1.08,5.89,2.32,11.76,3.05,17.72,.32,2.58-1.09,5.04-3.6,5.9-2.5,.86-5.07,1.43-7.74,1.52-7.99,.26-15.98,.57-23.97,.87v.06Z"/><path class="cls-6" d="M237.1,443.6c9.19,.29,18.38,.59,27.57,.87,3.05,.09,5,2.23,7.2,3.88,.4,.3,.33,.87,.4,1.34,.85,5.93,1.71,11.86,2.57,17.8,.06,.39,.09,.79,.13,1.19,.11,.87-.26,1.39-1.14,1.47-.64,.06-1.28,.1-1.91,.08-7.68-.26-15.35,.04-23.03,.06-6.72,.02-13.42-.49-20.13-.9-4.31-.27-8.62-.56-12.92-.84-.72-.05-1.43-.12-2.15-.16-1.2-.06-1.88-.58-2.07-1.86-.3-2.05-.74-4.09-1.13-6.13-1-5.18-2.14-10.33-2.66-15.59-.2-2.03-.22-2.07,1.93-2.01,8.39,.22,16.78,.46,25.18,.69,.72,.02,1.44,0,2.16,0v.11Z"/><path class="cls-11" d="M49.5,324.59c1.06-.51,2.2-.33,3.3-.36,13.01-.35,26.01-1,38.99-1.9,4.39-.3,8.78-.1,13.18-.11,.87,0,1.53,.37,2.18,.84,1.55,1.12,3.06,2.31,4.65,3.37,1.36,.92,1.52,2.43,1.72,3.74,.72,4.65,1.22,9.33,1.81,14q.6,5.12-4.32,5.12c-7.6,0-15.2,.14-22.8-.04-9.98-.24-19.92,.36-29.86,.99-4.29,.27-4.97-.21-5.87-4.13-1.45-6.36-2.57-12.79-3.59-19.24-.14-.91-.38-1.74,.61-2.3Z"/><path class="cls-5" d="M152.8,322.03c8.16,0,16.3-.51,24.45-.88,2.89-.13,3-.06,3.44,2.94,.97,6.49,2.6,12.84,3.85,19.27,.2,1.02,.35,2.05,.51,3.07,.23,1.51,.22,1.55-1.42,1.61-4.23,.17-8.47,.37-12.71,.46-9.91,.21-19.83,.32-29.74,.56-3.43,.08-6.86,.43-10.29,.65-.8,.05-1.59,.13-2.39,.14-2.18,.02-2.24,0-2.73-2.13-1.24-5.45-2.49-10.9-3.61-16.38-.47-2.3-.59-4.65,1.46-6.47,.41-.36,.74-.86,.99-1.35,.59-1.16,1.53-1.41,2.76-1.41,5.36,.01,10.72-.07,16.07-.1,3.12-.02,6.23,0,9.35,0Z"/><path class="cls-3" d="M313.84,469.84c-9.83,.52-19.66,.12-29.48,.24-.88,.01-1.75-.09-2.6-.35-.93-.28-1.49-.85-1.65-1.84-.79-4.8-1.74-9.58-1.97-14.47-.06-1.25,.18-2.32,.94-3.33,1.15-1.55,2.57-2.84,3.82-4.29,.62-.72,1.39-.68,2.18-.65,4.39,.19,8.78,.36,13.16,.59,12.53,.65,25.07,.69,37.61,.36,2.08-.05,4.15,.05,6.23,.02,1.08-.02,1.61,.41,1.75,1.49,.42,3.25,.9,6.48,1.31,9.73,.33,2.53,.61,5.07,.88,7.61,.09,.87,.15,1.77,.05,2.63-.2,1.69-.57,2.02-2.26,2.08-2.87,.09-5.75,.16-8.63,.17-7.11,.02-14.22,0-21.33,0Z"/><path class="cls-5" d="M233.77,378.32c-8.16-.14-16.31,.37-24.47,.44-1.8,.01-3.46-.21-4.99-1.29-1.17-.82-2.56-1.33-3.76-2.1-2.22-1.43-3.85-3.17-3.77-6.14,.13-4.4,.05-8.8-.03-13.2-.02-1.28,.49-1.67,1.67-1.69,4.16-.09,8.31-.33,12.47-.34,4.49,0,8.93-.6,13.4-.83,9.67-.5,19.34-.61,29.01,0,1.36,.08,2.72,.09,4.08,.15,2.17,.09,2.19,.09,2.37,2.34,.29,3.59,.54,7.18,.84,10.76,.26,3.11,.57,6.21,.89,9.31,.26,2.56,.26,2.61-2.27,2.54-8.48-.23-16.96-.37-25.43,.07Z"/><path class="cls-16" d="M152.21,313.05c-6.78,.05-13.72-.36-20.66-.65-1.51-.06-3.01,.14-4.54-.1-1.33-.21-2.29-.83-3.34-1.63-2.61-1.99-4.02-4.45-4.58-7.74-.75-4.4-2.06-8.7-2.69-13.13-.3-2.08-.25-2.19,1.83-2.3,11.8-.65,23.61-1.29,35.41-1.96,5.98-.34,11.96-.72,17.95-.79,1.92-.02,2.95,.95,3.14,2.76,.76,7.07,2,14.07,3.15,21.08,.72,4.41,.74,4.38-3.68,4.42-7.27,.06-14.54,.31-21.99,.03Z"/><path class="cls-2" d="M235.17,410.1c-9.6,0-19.19,.01-28.79,0-3.3,0-3.88-.65-4.81-3.79-1-3.39-1.55-6.84-2.12-10.3-.29-1.75,.1-2.89,1.42-3.95,1.8-1.46,3.54-3,5.25-4.55,.87-.79,1.8-1.2,3.01-1.19,4.72,.01,9.43-.06,14.15-.08,9.27-.03,18.55-.06,27.82-.06,3.44,0,6.86,.32,10.31,.1,2.11-.13,2.28,.03,2.48,2.24,.23,2.63,.26,5.26,.53,7.89,.41,3.9,1.09,7.75,1.85,11.59,.09,.47,.14,.95,.25,1.42,.27,1.17-.27,1.65-1.38,1.62-1.44-.04-2.88-.07-4.32-.15-8.55-.47-17.11-.16-25.67-.78Z"/><path class="cls-18" d="M98.45,146c5-.73,10.05-.54,15.07-.96,7.96-.66,15.91-1.58,23.89-1.93,4.63-.2,9.26-.55,13.9-.44,.4,0,.8,0,1.2,.01,3.57,.13,3.92,.44,4.47,3.89,.85,5.37,1.6,10.75,1.99,16.18,.55,3.93-.38,5.34-4.22,5.98-3.46,.57-7,.58-10.49,.73-13.32,.57-26.66,.9-39.99,1.03-4.14,.04-4.92-.51-5.74-4.53-1.12-5.45-2.09-10.94-2.9-16.45-.42-2.9-.33-3.01,2.82-3.51Z"/><path class="cls-8" d="M270.31,353.39c7.48-.48,14.98-.72,22.47-1.07,12.11-.55,24.22-1.26,36.33-1.91,.4-.02,.8-.06,1.19-.11q2.32-.29,2.47,2.06c.25,4.52,.81,9.03,.82,13.55,0,2.54-2.25,4.12-3.64,6.03-.74,1.02-1.76,1.84-2.58,2.84-1.94,2.37-4.81,1.88-7.32,2.05-3.98,.28-7.99,.15-11.99,.06-10.62-.23-21.19,1.31-31.81,.99-3.73-.11-4.45-.65-5.23-4.41-1.17-5.69-2.14-11.4-2.42-17.22-.07-1.49,.12-2.51,1.71-2.86Z"/><path class="cls-10" d="M110.8,490.68c-7.76-.16-15.51-.09-23.26-.52-.4-.02-.8-.02-1.2-.05-2.28-.17-4.24-.8-5.92-2.6-1.79-1.91-3.95-3.49-6.01-5.13-.93-.74-1.56-1.6-1.71-2.76-.54-4.28-1.08-8.56-1.59-12.84-.06-.47,.08-.96,.05-1.43-.05-.89,.44-1.1,1.18-1.06,.8,.04,1.6,.07,2.39,.13,9.41,.73,18.83,1.16,28.26,1.43,9.67,.27,19.32,.73,28.89,2.32,2.15,.36,2.72,.82,3.09,2.9,1.02,5.66,2.04,11.32,2.61,17.06,.26,2.64-.06,3.12-2.81,2.97-5.11-.28-10.23-.35-15.34-.39-2.88-.02-5.76,0-8.64,0Z"/><path class="cls-11" d="M171.66,98.21c-1.92,.1-3.83,.22-5.75,.28-2.83,.09-3.98-.82-4.53-3.62-1.1-5.64-2.13-11.29-3.27-16.92-.25-1.24,.21-1.54,1.28-1.65,4.05-.44,8.09-.96,12.14-1.38,10-1.05,20-2.14,30.02-3.07,6.12-.57,12.27-.83,18.39-1.32,1.29-.1,1.64,.38,1.83,1.54,.81,5.04,1.7,10.08,2.59,15.11,.11,.65,.2,1.25-.18,1.84-1,1.54-1.94,3.12-3.01,4.62-.97,1.35-2.24,2.01-4.04,2.09-11.25,.51-22.5,1.14-33.74,1.75-3.91,.21-7.81,.47-11.72,.71v.03Z"/><path class="cls-5" d="M106.15,214.22c5.99-.16,11.99-.39,17.98-.45,9.92-.11,19.82-.74,29.74-.65,1.92,.02,3.84,.02,5.76,.07,2.18,.05,3.23,.92,3.53,3.01,.52,3.56,1.04,7.12,1.44,10.69,.24,2.14,.71,4.27,.6,6.44,.91,6.51,.91,6.57-5.35,6.5-12.53-.13-25.03,.27-37.53,1.19-2.07,.15-4.15,.04-6.23,.02-.56,0-1.2,.06-1.62-.31-2.65-2.31-5.84-4.06-6.3-8.23-.58-5.28-1.6-10.51-2.45-15.77-.14-.85-.24-1.77,.43-2.51Z"/><path class="cls-23" d="M274.63,386.98l2.32-.07c1.77-.46,3.6,.16,5.37-.34,10.44-.93,20.9-.77,31.36-.97,3.51-.07,7.03,.14,10.54,.03,2.57-.08,4.33,1.11,5.81,2.99,.24,.3,.3,.83,.75,.84,3.1,.08,4.12,2.98,6.13,4.52,.74,.57,.78,1.57,.93,2.41,.35,1.96,.75,3.92,.67,5.93,.54,2.17,.1,4.4,.59,6.61,.44,2.02-.96,3.22-3.19,3.18-2.39-.04-4.77-.34-7.14-.55-5.16-.46-10.32-.71-15.49-.9-9.57-.36-19.14-.47-28.71-.39-1.11,.01-2.22,.04-3.33,.21-2.99,.47-4.96-.74-5.45-3.67-.94-5.65-1.7-11.33-2.54-17-.19-1.25,.41-2.15,1.39-2.84Z"/><path class="cls-10" d="M160.24,378.8c-8.16-.05-14.47,.18-20.78,.34-2.71,.07-5.43-.12-8.15-.16-1.14-.02-1.76-.54-2.01-1.64-1.36-5.92-3.07-11.75-4.24-17.71-.09-.47-.11-.95-.17-1.43-.07-.64,.12-.98,.83-1.18,1.24-.37,2.48-.61,3.76-.66,16.21-.7,32.42-1.41,48.63-2.09,2-.08,4-.07,6-.07,1.8,0,2.85,.88,3.22,2.71,1.11,5.51,1.44,11.08,1.48,16.69,0,1.36-.24,2.4-1.13,3.43-.81,.94-1.68,1.31-2.89,1.34-8.79,.22-17.58,.64-24.53,.43Z"/><path class="cls-21" d="M91.93,378.36c-5.37-.16-11.36,.3-17.36,.31-2.56,0-5.11-.11-7.67-.22-1.42-.06-2.65-.43-3.78-1.27-1.98-1.48-4-2.92-5.98-4.4-.79-.59-1.31-1.32-1.46-2.37-.5-3.48-1.08-6.95-1.61-10.42-.06-.38,.1-.79,.07-1.19-.08-1.13,.43-1.51,1.54-1.56,6.87-.33,13.73-.72,20.6-1.08,8.62-.45,17.24-1.02,25.88-.8,3.99,.11,7.99,.31,11.98,.52,1.68,.09,2.25,.54,2.53,1.99,1.17,6.2,2.33,12.41,3.44,18.63,.4,2.24,.33,2.33-1.87,2.25-8.55-.29-17.11-.37-26.3-.4Z"/><path class="cls-4" d="M80.63,94.63c.08,.14,.11,.3,.09,.46,.02,2.14-1.61,3.4-2.87,4.65-1.96,1.96-4.21,3.13-7.38,3.16-9.47,.11-18.93,1.2-28.41,1.25-7.18,.04-14.35,.72-21.54,.56-1.94-.04-2.86-.83-3.21-2.75-.86-4.78-1.57-9.57-2.07-14.39-.19-1.82-.25-3.67,.66-5.38,.31-.06,.63-.19,.93-.18,6.65,.24,13.25-.59,19.87-.95,8-.43,15.99,.09,23.98,0,5.04-.06,10.07,.2,15.1,.42,1.37,.06,1.99,.52,2.26,1.85,.67,3.29,1.45,6.55,2.19,9.83,.38,.42,.05,1.03,.38,1.47Z"/><path class="cls-22" d="M317.92,496.57c-10.69,0-18.36,0-26.03,0-1.44,0-2.84-.12-4.25-.52-.92-.26-1.27-.66-1.49-1.55-1.01-4.12-1.62-8.31-2.3-12.49-.23-1.42-.47-2.84-.57-4.27-.1-1.46,.14-1.67,1.54-1.81,.16-.02,.32-.02,.48-.01,8.73,.24,17.38-1.04,26.09-1.26,11.03-.28,22.05-.72,33.08-.72,2.78,0,2.82-.01,3.18,2.85,.36,2.93,.61,5.88,.95,8.81,.1,.92-.06,1.71-.6,2.48-1.43,2.02-2.81,4.08-4.19,6.14-1.23,1.84-2.75,2.83-5.15,2.75-7.91-.25-15.82-.31-20.72-.39Z"/><path class="cls-14" d="M276.08,419.16l.03-3.74c2.67-1.67,5.62-.92,8.42-.75,2.87,.17,5.74,.24,8.62,.34,10.31,.33,20.61,.56,30.93,.49,4.16-.03,8.28-.79,12.45-.5,1.17,.08,2.43-.17,3.39,.82,.8,.95,.54,2.13,.62,3.19,.44,6.01,1.39,11.96,2.28,17.91-.06,1.36-1.07,1.49-2.04,1.42-6.13-.46-12.27,.02-18.4-.38-2.94-.19-5.9-.23-8.83-.25-6.38-.05-12.75-.29-19.13-.32-1.9,0-3.81,.13-5.71,.13-3.08,0-5.38-1.04-7.26-3.37-.6-.74-1.28-1.44-2.03-2.03-2.5-1.94-3.52-4.48-3.08-7.58,.26-1.82-.58-3.57-.26-5.38Z"/><path class="cls-11" d="M145.07,469.03c3.52-.05,7.02,.2,10.52,.45,7.09,.51,14.19,.67,21.29,.99,8.61,.39,17.2,1.02,25.77,2,.87,.1,1.26,.4,1.43,1.24,.82,4.07,1.56,8.15,2.14,12.26,.1,.69-.2,1.26-.54,1.79-.64,1.01-1.35,1.97-2.04,2.94-3.5,4.59-3.49,4.53-9.24,3.58-4.41-.73-8.82-1.29-13.33-1.24-10.78,.13-21.56,.02-32.33-.68-3.34-.22-3.72-.33-4.29-3.82-.91-5.57-1.66-11.16-1.85-16.81-.06-1.63,.64-2.73,2.47-2.71Z"/><path class="cls-23" d="M123.44,409.37c-4.66-.63-9.36-.23-14.07-.02-6.55,.29-13.1-.1-19.65-.17-7.99-.09-15.97-.49-23.94-1.01-2.79-.18-3.29-.65-3.74-3.34-.69-4.17-1.36-8.35-2.15-12.51-.16-.84-.03-1.38,.58-1.88,1.37-1.1,2.75-2.19,4.11-3.29,.61-.49,1.3-.49,2.04-.45,10.61,.58,21.23,.81,31.85,1.02,5.51,.1,11.02,.18,16.53,.29,1.36,.03,2.72,.08,4.07,.19,2.11,.16,2.78,.64,3.27,2.77,.54,2.33,.91,4.7,1.33,7.06,.56,3.14,1.12,6.29,1.62,9.44,.31,1.94,.17,2.03-1.87,1.91Z"/><path class="cls-5" d="M243.66,475.43c9.84,0,19.67-.01,29.51,0,2.65,0,2.72,.04,3.08,2.75,.72,5.47,1.33,10.95,2.03,16.42,.13,1.04-.2,1.47-1.24,1.48-2.48,.02-4.96,.11-7.44,.12-13.43,.03-26.87,.26-40.3-.39-2.16-.1-4.31-.27-6.47-.36-1.19-.05-2.15-.48-2.97-1.34-2.37-2.5-4.74-4.99-7.13-7.46-.72-.75-.93-1.63-.98-2.62-.15-2.64-.2-5.27,0-7.91,.13-1.81,.12-1.87,1.95-1.83,4.64,.09,9.27,.23,13.91,.38,5.35,.18,10.71,.41,16.06,.61v.15Z"/><path class="cls-23" d="M165.64,410.05c-10.15-.14-18.05,.35-25.96,.45-.88,.01-1.76,.04-2.64,.03-2.16-.04-2.19-.07-2.78-2.16-1.61-5.69-2.82-11.47-3.83-17.29-.37-2.14,0-2.62,2.11-2.69,5.11-.18,10.22-.29,15.33-.46,9.02-.29,18.04-.63,27.05-.9,2.55-.08,5.11,.1,7.66,0,2.72-.1,4.36,1.72,6.21,3.21,.34,.27,.35,.69,.41,1.09,.19,1.26,.48,2.51,.61,3.77,.4,3.98,1.17,7.89,1.92,11.81,.12,.63,.17,1.27,.25,1.9,.11,.8-.22,1.21-1.04,1.21-.64,0-1.28,.03-1.92,.03-8.55,0-17.09,0-23.4,0Z"/><path class="cls-1" d="M233.56,415.73c8.24,.14,16.48-.3,24.71,.11,2.71,.14,5.43,.35,8.14,.43,1.11,.03,1.64,.53,1.78,1.51,.6,4.11,1.17,8.23,1.75,12.34,.13,.94-.23,1.64-.81,2.39-1.82,2.32-4.21,3.16-7.08,3.33-6.79,.4-13.58,.48-20.38,.47-10.16-.01-20.31-.35-30.45-.96-.72-.04-1.44-.09-2.15-.2-1.86-.27-1.9-.28-1.84-2.21,.02-.53-.18-.92-.36-1.35-.16-.37-.52-.75-.47-1.08,.45-3.06-1.67-5.51-1.92-8.44-.13-1.57-.32-3.17-.63-4.74-.22-1.14,.3-1.59,1.43-1.64,7.59-.3,15.18-.53,22.78-.23,1.84,.07,3.67,.17,5.51,.25Z"/><path class="cls-11" d="M86.94,80.72c6.76-.53,13.52-1.04,20.28-1.6,10.42-.86,20.87-1.36,31.32-1.67,.64-.02,1.28,0,1.92,0,3.06,.05,4.72,1.38,5.18,4.49,.58,3.86,1.41,7.7,1.35,11.63q.67,5.35-4.54,5.35c-12.11-.03-24.18,.66-36.25,1.6-4.28,.33-8.58,.66-12.88,.79-3.28,.09-5.87-1.94-6.51-5.12-.81-4.05-1.49-8.12-2.19-12.19-.31-1.84,1.25-2.39,2.31-3.28Z"/><path class="cls-7" d="M140.14,444.47c1.4-1.62,3.04-2.07,5.27-1.95,16.74,.89,33.5,1.44,50.26,.8,2.48-.09,2.64-.01,3.14,2.51,1.09,5.47,2.44,10.9,2.89,16.49,.55,4.06,.55,4.12-3.4,3.87-6.99-.44-13.96-1.15-20.95-1.69-6.91-.54-13.85-.56-20.75-1.17-3.57-.32-7.15-.62-10.74-.49-2.06,.08-3.28-.87-3.78-2.89-1.12-4.48-1.58-9.09-2.7-13.56-.2-.79,.26-1.37,.76-1.91Z"/><path class="cls-5" d="M67.49,440.12c.87-.59,1.78-.37,2.64-.36,13.27,.19,26.54,.36,39.81,.65,5.19,.11,10.37,.53,15.56,.76,.88,.04,1.51,.38,2.05,1.03,1.24,1.47,2.49,2.92,3.74,4.38,.71,.82,.99,1.82,1.12,2.86,.47,3.65,.93,7.29,1.36,10.94,.15,1.31-.04,1.53-1.49,1.37-1.75-.19-3.48-.5-5.21-.81-8.38-1.49-16.86-1.78-25.33-1.91-9.76-.15-19.5-.62-29.25-1.02-2.39-.1-2.56-.21-2.98-2.51-.92-5.1-1.62-10.24-2.02-15.38Z"/><path class="cls-5" d="M68.32,412.84c5.51,.04,11.01,.52,16.51,.81,5.58,.3,11.17,.55,16.76,.71,7.99,.23,15.96,.65,23.92,1.35,1.5,.13,1.84,1.02,2.08,2.16,.72,3.44,1.44,6.88,2.15,10.32,.09,2.32-2.41,5.33-4.68,5.32-7.02-.05-14.03,.2-21.06-.29-7.15-.5-14.32-.71-21.48-1.08-4.7-.24-9.36-.78-14.04-1.13-2.13-.57-3.04-2.05-3.38-4.16-.64-3.86-1.4-7.7-1.89-11.58-.32-2.54-.22-2.6,2.26-2.58,.95,0,1.92-.17,2.85,.15Z"/><path class="cls-20" d="M135.42,415.81c7.51-.16,15.03-.25,22.53-.5,6.71-.22,13.42-.51,20.13-.27,4.39,.15,8.78,.49,13.17,.72,2.09,.11,2.24,1.96,2.7,3.25,.6,1.71,.71,3.59,1.02,5.4,.67,2.54,.63,5.18,1.12,7.75,.45,2.36,.1,2.78-2.21,2.58-16.41-1.38-32.86-1.08-49.3-1.27-3.33-.04-7.77-2.62-8.07-6.55-.2-2.75-1.37-5.4-1.89-8.14-.21-1.09-.48-2.25,.81-2.96Z"/><path class="cls-43" d="M339.92,415.8c-9.19,.28-18.39,.35-27.59,.33-10.32-.02-20.63-.39-30.94-.72-1.76-.06-3.52,0-5.28,0,.02-.08,.04-.16,.07-.23q.96-1.71-.89-2.97c2.4-.6,4.66-.03,6.87-.75-1.3,0-2.61-.03-3.91,0-1.06,.03-1.94-.36-2.91-.74-1.6-.64-.66-1.15-.17-1.78,2.67,1.51,5.52,1.59,8.51,1.35,10.12-.8,20.24,.14,30.36,.19,6.93,.04,13.81,.6,20.68,1.41,1.6,.19,3.15-.04,4.67-.54,.04,.85,.02,1.72,.52,2.47,.44,.66,.41,1.3,0,1.96Z"/><path class="cls-39" d="M270.31,353.39c-1.27,.75-1.71,1.88-1.32,3.25,.68,2.4,.22,4.91,.79,7.34,.3,1.29,.37,2.7,.74,3.97,.55,1.84,.88,3.72,1.16,5.59,.18,1.17,.91,2.01,1.23,3.07,.2,.69,.94,.8,1.61,.77,4.93-.19,9.89,.43,14.8-.42,.31-.05,.64-.03,.96-.05,9.48-.58,18.97-.54,28.46-.47,2.02,.02,3.94-.56,5.94-.54,.51,0,.9-.28,1.26-.61,2.49-2.36,4.82-4.87,6.68-7.78,.54-.85,.59-1.78,.63-2.75,.14-3.36-.63-6.67-.56-10.02,.02-.79,.06-1.59,.1-2.38,.76,2.63,.42,5.37,.82,8.04,.22,1.5,.15,3.04,.41,4.53,.27,1.55-.1,2.83-1.07,4.01-1.77,2.16-3.54,4.33-5.29,6.5-.69,.86-1.55,1.34-2.66,1.42-1.99,.13-3.98,.43-5.97,.42-13.99-.11-27.94,.74-41.91,1.2-1.2,.04-2.4,.04-3.59,.01-2-.05-2.1-.13-2.6-2.06-1.04-4.03-1.43-8.17-2.08-12.27-.46-2.93-.46-5.89-.67-8.83q-.14-1.95,2.15-1.93Z"/><path class="cls-36" d="M262.66,323.21c-.18,3.61,.5,7.13,1.08,10.65,.41,2.5,.89,4.99,1.32,7.49,.3,1.76,1.12,3.31,1.93,4.87,.39,.75,1.04,.94,1.8,.91,3.66-.16,7.31,.23,10.98-.37,2.57-.42,5.24-.35,7.85-.47,3.42-.16,6.84-.38,10.24-.67,9.8-.83,19.61-.24,29.42-.41,2.88-.05,3.38-.53,3.53-3.48,.12-2.57-.69-5.06-.53-7.62,.05-.79,.06-1.59,.09-2.38,.75,2.95,.65,5.99,.99,8.98,.14,1.26,.43,2.51,.22,3.81-.2,1.18-.64,1.74-1.99,1.68-6.54-.27-13.09-.15-19.64-.08-7.59,.08-15.14,.8-22.7,1.3-6.69,.44-13.38,.9-20.1,.65-1.44-.05-1.92-.57-2.17-1.87-1.11-5.88-2.28-11.74-2.81-17.71-.08-.95-.32-1.89-.46-2.83-.15-.99-.12-1.93,.96-2.45Z"/><path class="cls-37" d="M339.39,411.37c-1.18,1.34-2.74,1.07-4.23,.91-3.81-.41-7.64-.62-11.47-.92-3.59-.28-7.18-.27-10.78-.39-10.71-.37-21.41-.38-32.12-.12-1.04,.03-2.08-.02-3.11-.07-1.22-.06-2.13-.59-2.52-1.82-.06-3.74-.89-7.39-1.33-11.09-.33-2.76-.8-5.5-1.2-8.24-.24-1.71-.06-1.93,1.98-2.65-.72,1.28-.74,2.54-.62,4.06,.38,4.92,1.91,9.66,2.1,14.6,.04,1.15,.62,2.18,1.15,3.11,.7,1.23,2.27,1.34,3.42,1.13,2.87-.53,5.73-.26,8.59-.3,4.47-.07,8.96-.26,13.41,.04,5.89,.4,11.8,.09,17.67,.51,4.74,.35,9.51,.51,14.23,1.26,3.47,.55,4.36-.5,3.98-4.06-.18-1.66-.25-3.34-.03-5.01,.64,2.99,.8,6.02,.89,9.06Z"/><path class="cls-29" d="M40.38,252.14c-1.39,1.93-1.12,4.16-.87,6.25,.63,5.2,1.51,10.36,2.23,15.55,.15,1.1,.06,2.23,.09,3.35,.03,1.56,.79,2.35,2.18,3.25,2.23,1.44,4.49,1.24,6.83,1.33,1.27,.05,2.53,.41,3.79,.37,5.26-.16,10.52-.24,15.76-.55,3.5-.21,7.02-.02,10.5-.41,6.21-.7,12.43-.22,18.65-.39,1.75-.05,3.49-.01,5.23,.37,1.08,.24,2.32,.29,2.38-1.41,.53,2.11,.52,2.14-1.61,2.08-7.84-.24-15.67-.17-23.51,.05-5.83,.16-11.66,.56-17.49,.78-5.68,.21-11.35,.1-17.03-.01-1.18-.02-2.44,.18-3.27-1.02-.2-.29-.56-.24-.87-.29-1.96-.27-2.11-.26-2.24-2.19-.36-5.35-1.1-10.65-1.75-15.96-.33-2.69-.65-5.39-1-8.09-.29-2.23-.3-2.23,2.01-3.07Z"/><path class="cls-33" d="M198.77,284.28c-.67,.65-1.51,.38-2.28,.4-2.24,.05-4.48,.02-6.71,.1-1.41,.05-1.69,.31-1.37,1.54,.5,1.95,.19,3.97,.74,5.92,.21,.76,.35,1.47,.79,2.18,.72,1.15,.4,2.58,.62,3.88,.68,4.09,1.85,8.06,2.55,12.14,.21,1.22,1.14,1.64,2.3,1.64,2.32,0,4.64-.06,6.95,.01,7.27,.23,14.53-.35,21.78-.62,4.53-.17,9.08-.12,13.6-.4,3.65-.23,7.31-.4,10.94-.89,1.37-.18,1.78-1.57,2.94-1.92-.37,1.93-1.55,2.76-3.51,2.9-5.9,.41-11.78,.87-17.7,.98-10.62,.21-21.24,.57-31.86,.86-1.2,.03-2.4,.04-3.6,.01-2.21-.05-2.51-.24-2.87-2.36-.79-4.65-1.79-9.25-2.9-13.83-.87-3.59-1.11-7.25-1.56-10.89-.14-1.15,.18-1.68,1.33-1.66,3.27,.04,6.54-.32,9.81,0Z"/><path class="cls-38" d="M98.45,146c-.62,.83-1.7,.2-2.54,.79,.49,3.25,.69,6.55,1.31,9.84,.63,3.36,1.48,6.67,2.11,10.02,.17,.91,.6,1.62,1.04,2.37,.65,1.11,1.44,1.59,2.77,1.12,.65-.23,1.42-.14,2.14-.15,4-.02,8.01,.21,11.98-.09,7.18-.54,14.37-.17,21.53-.51,5-.24,10-.67,15.01-.91,3.6-.17,4.87-1.66,5.17-5.75,.55,1.46,.74,2.95-.08,4.35-.83,1.41-2.1,2.01-3.78,2.11-8.86,.53-17.72,1.06-26.6,1.24-8.56,.17-17.11,.42-25.66,.63-.64,.02-1.28,.06-1.92,.05-1.72-.04-1.97-.18-2.29-1.8-1.14-5.8-2.32-11.59-3.08-17.45-.16-1.27-.38-2.53-.5-3.8-.17-1.75,0-1.95,1.71-2.09,.55-.05,1.11,.02,1.67,.03Z"/><path class="cls-25" d="M20.69,111.41c.08,.39,.37,.96,.21,1.14-1.03,1.2-.43,2.47-.14,3.63,.43,1.74,.33,3.48,.45,5.23,.26,4.12,.62,8.24,1.24,12.33,.13,.86,.15,1.75,.18,2.62,.09,2.51,1.33,3.82,3.84,3.83,6.96,.02,13.93,.32,20.87-.1,9.59-.58,19.17-.13,28.75-.4,1.9-.05,3.8-.31,5.71,0,.47,.08,.96,.04,1.44-.02,2.45-.27,2.58-.41,2.79-2.84,1.04,3.41,.94,3.54-2.46,3.52-15.51-.11-31.02,.39-46.52,.69-3.84,.07-7.68,.13-11.51-.2-.48-.04-.96-.08-1.43-.16-1.96-.35-2.05-.39-2.27-2.41-.53-4.84-1.11-9.69-1.46-14.55-.26-3.67-.78-7.3-1.18-10.95-.18-1.62,.38-1.6,1.51-1.35Z"/><path class="cls-26" d="M135.42,415.81c-1.06,1.99-.09,3.94,.38,5.78,.49,1.91,1.09,3.82,1.51,5.76,.44,2.03,1.54,3.28,3.38,4.27,2.58,1.4,5.26,1.51,8.06,1.48,7.19-.06,14.39-.22,21.57,.05,4.46,.17,8.95,.04,13.37,.52,3.01,.33,6.07-.03,9.03,.76,.52,.14,1.12,0,1.67,.05,1.16,.09,1.74-.5,1.46-1.56-.49-1.87-.23-3.82-.7-5.68-.24-.94-.31-1.88-.17-2.84,1.1,3.2,1.17,6.57,1.61,9.88,.1,.74-.28,1.03-.96,1.01-.32,0-.63-.07-.95-.09-14.6-1.24-29.22-1.33-43.86-1.16-1.04,.01-2.09-.08-3.12,.05-3.54,.46-6.57-.79-9.49-2.61-.89-.55-1.45-1.2-1.7-2.18-.96-3.88-1.99-7.74-2.61-11.69-.24-1.52-.2-1.53,1.52-1.81Z"/><path class="cls-42" d="M15.9,82.19c0,.32,.09,.66,0,.95-1.08,4.02,.32,7.89,.7,11.82,.22,2.29,.74,4.55,1.23,6.8,.47,2.21,.8,2.45,3.08,2.45,3.76,0,7.54,.23,11.27-.11,5.91-.55,11.83-.06,17.72-.48,5.88-.43,11.79-.5,17.65-1.23,1.89-.23,3.83-.08,5.75-.1,.74,0,1.48,0,1.62-.99,.06-.42,.29-.73,.73-.85,2.73-.8,3.69-3.27,5.06-5.36,.25,.23,.45,.58,.31,.85-.99,2.01-2.1,3.97-4.03,5.22-.66,.42-1.41,.52-1.62,1.51-.14,.64-.93,.47-1.47,.46-4.88-.04-9.74,.37-14.6,.68-8.77,.57-17.55,.68-26.33,.98-4.31,.15-8.61,.42-12.93,.36-2.6-.04-2.77-.24-3.17-2.81-.9-5.67-1.95-11.32-2.17-17.09-.05-1.29,.11-2.3,1.19-3.05Z"/><path class="cls-30" d="M145.07,469.03c-1.47,.87-2.29,1.82-2.06,3.87,.45,4.02,.84,8.05,1.43,12.06,.2,1.33,.23,2.68,.48,4.02,.41,2.26,1.78,3.05,3.79,3.15,9.25,.43,18.5,.55,27.75,.49,1.28,0,2.56,.04,3.83-.01,5.61-.22,11.1,.76,16.58,1.72,2.09,.37,3.77,.24,4.88-1.84,.4-.75,.97-1.47,1.87-1.76-.34,1.54-1.5,2.61-2.28,3.89-.62,1.01-1.65,.84-2.6,.71-2.85-.4-5.7-.79-8.54-1.26-5.01-.83-10.05-.54-15.09-.55-9.04-.03-18.07-.23-27.1-.76-.4-.02-.8-.04-1.2-.09-1.99-.25-2.5-.68-2.76-2.65-.52-3.96-.98-7.93-1.45-11.9-.22-1.91-.4-3.82-.61-5.72-.08-.72-.08-1.42,.2-2.12,.67-1.71,.74-1.75,2.85-1.22Z"/><path class="cls-34" d="M86.94,80.72c-.41,.48-.81,.99-1.25,1.44-.55,.57-.71,1.2-.56,1.97,.79,4.05,1.52,8.12,2.34,12.17,.48,2.4,3.24,4.61,5.68,4.54,4.77-.14,9.53-.52,14.3-.84,2.78-.19,5.55-.52,8.34-.58,4.54-.09,9.08-.44,13.62-.61,5.08-.18,10.15-.31,15.22-.35,2.29-.02,2.29-.03,2.27-2.25,0-.88-.13-1.76,.1-2.62,1.21,5.85,1.21,5.9-4.52,5.85-11.29-.09-22.55,.33-33.79,1.32-5.42,.48-10.85,.75-16.27,1.11-2.22,.15-5.5-2.1-5.91-4.34-.86-4.64-1.58-9.3-2.28-13.96-.24-1.59,.24-2,2.73-2.85Z"/><path class="cls-27" d="M49.5,324.59c-.62,1.43,0,2.83,.24,4.19,.94,5.4,1.65,10.85,3.12,16.15,.19,.69,.31,1.4,.52,2.08,.93,2.95,1.32,3.26,4.47,2.95,6.19-.61,12.39-.88,18.62-.99,2.11-.04,4.26,.2,6.38-.32,1.73-.43,3.46,.39,5.22,.38,8.16-.01,16.31,.01,24.47,0,2.61,0,2.69-.11,2.69-2.7,0-.72,.05-1.43,.08-2.15,.8,1.37,.39,2.97,.8,4.42,.18,.66-.22,1.06-.92,1.07-1.36,.02-2.72,.03-4.07,.03-11.42,0-22.85-.09-34.27,.04-5.83,.07-11.65,.54-17.47,.82-1.36,.06-2.72,.14-4.07,.09-1.99-.07-2.53-.55-2.94-2.46-1.23-5.78-2.57-11.53-3.36-17.39-.2-1.5-.6-2.97-.83-4.47-.15-.97,.05-1.79,1.31-1.75Z"/><path class="cls-32" d="M140.14,444.47c-.05,.55-.41,1.03-.29,1.63,.83,4.2,1.62,8.41,2.46,12.61,.12,.61,.44,1.19,.66,1.78,.55,1.42,1.48,1.95,3.09,1.9,4.46-.14,8.9,.29,13.32,.86,.32,.04,.64,.05,.96,.03,4.95-.22,9.86,.45,14.8,.6,4.43,.13,8.85,.95,13.28,1.21,2.86,.17,5.7,.54,8.57,.63,.64,.02,1.28-.02,1.91,.05,2.71,.31,2.71,.32,2.7-2.5,0-.32,.07-.63,.1-.95,.63,1.16,.45,2.48,.71,3.72,.12,.56-.28,.89-.85,.89-.48,0-.95-.06-1.43-.1-6.83-.58-13.66-1.2-20.49-1.73-4.21-.33-8.43-.63-12.65-.76-7.5-.23-14.95-1.14-22.45-1.28-2.39-.05-2.43-.18-2.92-2.55-.95-4.6-1.83-9.22-2.75-13.83-.22-1.13,.18-1.86,1.28-2.2Z"/><path class="cls-28" d="M106.15,214.22c-.21,1.93,.35,3.8,.61,5.68,.48,3.45,.76,6.95,1.72,10.33,.04,.15,.06,.32,.04,.48-.43,4.9,3.19,7.12,6.38,9.59,.6,.46,1.39,.23,2.1,.27,5.91,.3,11.8-.32,17.69-.65,3.75-.21,7.49-.27,11.23-.33,5.25-.09,10.51-.02,15.77-.02,.56,0,1.12,.03,1.68-.01,1.51-.11,1.72-.33,1.78-1.92,.05-1.43,.05-2.87,.07-4.31,.76,1.91,.4,3.93,.55,5.9,.05,.72-.49,.93-1.12,.93-1.6,.01-3.2,.05-4.8,.03-12.49-.22-24.95,.38-37.4,1.17-2.23,.14-4.48,.07-6.72,.17-1.14,.05-1.9-.49-2.76-1.14-3.44-2.58-5.34-5.76-5.6-10.23-.25-4.2-1.33-8.35-2.04-12.53-.15-.87-.27-1.74-.13-2.62,.08-.53,.35-.88,.96-.79Z"/><path class="cls-31" d="M68.26,430.63c3.03,.01,6.02,.5,9.02,.87,.24,.03,.48,.08,.71,.07,3.92-.18,7.79,.54,11.7,.57,5.17,.05,10.34,.36,15.5,.85,1.58,.15,3.19,.07,4.79,.07,4.55,.02,9.11,.02,13.66,.03,2.89,0,5.42-2.04,6.09-4.9,.83,1.06,.67,1.91-.3,2.89-2.94,2.96-2.91,2.97-7.03,2.9-7.59-.14-15.18,0-22.77-.48-10.84-.68-21.72-.86-32.51-2.27-1.99-.26-1.99-.24-2.37-2.26-.22-1.17-.55-2.34-.44-3.55,1.31,.08,.88,1.17,1.03,1.87,.35,1.67,.85,3.17,2.91,3.34Z"/><path class="cls-44" d="M276.08,419.16c.56,2.03,.5,4.11,.5,6.18,0,2.28,.6,4.16,2.44,5.67,1.54,1.26,2.89,2.75,4.26,4.2,1.11,1.18,2.39,1.64,4.01,1.8,2.48,.25,4.93-.03,7.39,0,8.85,.13,17.71,.15,26.55,.53,6.22,.27,12.44,.18,18.66,.4,1.09,.04,2.29,.26,2.93-1.03,.65,1.19-.19,1.62-1.07,1.79-.85,.16-1.76,.13-2.63,.04-3.59-.39-7.19-.27-10.79-.32-13.03-.18-26.06-.8-39.1-.54-.88,.02-1.77,.01-2.64-.08-1.62-.18-3.06-.68-4.22-1.97-1.44-1.6-3.01-3.11-4.61-4.55-.96-.87-1.5-1.89-1.58-3.11-.19-2.79-.3-5.59-.42-8.38,0-.2,.21-.41,.32-.62Z"/><path class="cls-35" d="M68.26,430.63c-2.5,0-2.39-.03-3.07-2.38-.27-.94,.07-2.11-.87-2.83h.02c-.53-.9,.2-2.02-.47-2.91-.86-3.2-1-6.51-1.75-9.86,2.18-.24,4.19-.25,6.2,.19-1.49,.08-2.98,.16-4.63,.24,.3,4.56,1.21,8.91,1.99,13.3,.33,1.87,.99,3.28,2.59,4.25Z"/><path class="cls-37" d="M282.31,386.57c-1.75,.78-3.56,.44-5.37,.34,1.76-.57,3.57-.42,5.37-.34Z"/><path class="cls-33" d="M251.62,308.28c-.23-1.23,.45-1.91,1.44-2.42-.05,1.06-.68,1.77-1.44,2.42Z"/><path class="cls-31" d="M63.87,422.51c.88,.86,.44,1.93,.47,2.93-.54-.91-.52-1.92-.47-2.93Z"/><path class="cls-42" d="M80.63,94.63c-.53-.38-.52-.91-.38-1.47,.43,.41,.5,.92,.38,1.47Z"/><path class="cls-18" d="M340.63,169.83c.71-.67,1.4-.91,2.12-.78,1.79,.31,3.58,.53,5.41,.5,.7,0,1.28,.38,1.24,1.15-.04,.76-.71,.71-1.27,.73-2.57,.1-5.21,.53-7.5-1.6Z"/><path class="cls-18" d="M343.93,166.39c-.07,.13-.1,.32-.21,.39-.24,.17-.45,.04-.58-.18-.1-.17-.03-.3,.15-.38,.18-.08,.58,.01,.63,.17Z"/><path class="cls-18" d="M351.36,172.55c.19,0,.27,.1,.21,.27-.02,.07-.08,.13-.14,.17-.17,.12-.33,.07-.32-.13,0-.11,.16-.21,.25-.31Z"/></svg>