<!-- Generated by IcoMoon.io -->
<svg version="1.1" xmlns="http://www.w3.org/2000/svg" width="512" height="512" viewBox="0 0 512 512">
<title></title>
<g id="icomoon-ignore">
</g>
<path fill="#33342E" d="M512 141.25l-45.253-45.25-89.373 89.376-50.75-50.751 89.375-89.375-45.25-45.25-89.375 89.375-57.374-57.375-43.313 43.312 256.001 256 43.312-43.311-57.376-57.376 89.376-89.375z"></path>
<path fill="#33342E" d="M397.020 336.895l-221.912-221.912c-47.909 57.452-102.26 146.227-64.698 222.608l-66.124 66.124c-15.556 15.557-15.556 41.012 0 56.568l7.429 7.429c15.557 15.557 41.013 15.557 56.569 0l66.123-66.122c76.382 37.566 165.159-16.783 222.613-64.695z"></path>
</svg>
