<!-- Generated by IcoMoon.io -->
<svg version="1.1" xmlns="http://www.w3.org/2000/svg" width="384" height="448" viewBox="0 0 384 448">
<title></title>
<g id="icomoon-ignore">
</g>
<path fill="#222" d="M224 344v-48c0-4.5-3.5-8-8-8h-48c-4.5 0-8 3.5-8 8v48c0 4.5 3.5 8 8 8h48c4.5 0 8-3.5 8-8zM288 176c0-45.75-48-80-91-80-40.75 0-71.25 17.5-92.75 53.25-2.25 3.5-1.25 8 2 10.5l33 25c1.25 1 3 1.5 4.75 1.5 2.25 0 4.75-1 6.25-3 11.75-15 16.75-19.5 21.5-23 4.25-3 12.5-6 21.5-6 16 0 30.75 10.25 30.75 21.25 0 13-6.75 19.5-22 26.5-17.75 8-42 28.75-42 53v9c0 4.5 3.5 8 8 8h48c4.5 0 8-3.5 8-8v0c0-5.75 7.25-18 19-24.75 19-10.75 45-25.25 45-63.25zM384 224c0 106-86 192-192 192s-192-86-192-192 86-192 192-192 192 86 192 192z"></path>
</svg>
